<svg width="3734" height="3734" viewBox="0 0 3734 3734" fill="none" xmlns="http://www.w3.org/2000/svg">
<g filter="url(#filter0_d_1_2)">
<path d="M2062.33 227.6C2062.07 228.533 2061 235.6 2059.8 243.333C2057.93 256 2056.87 276.933 2054.33 346C2053.8 358.133 2052.73 376.667 2051.67 387.333C2050.6 398 2049.53 417.2 2049 430C2048.6 442.8 2047.67 465.067 2046.87 479.333C2046.2 493.6 2045 521.467 2044.2 541.333C2042.6 585.6 2042.33 587.867 2038.47 586.933C2019.8 582.533 2015.53 582 1995.67 582C1976.87 582.133 1956.47 583.867 1943.4 586.667C1939.4 587.6 1939 587.333 1939 584.533C1939 582.8 1938.33 572.667 1937.67 562.133C1936.87 551.6 1935.4 523.333 1934.33 499.467C1931.67 442.267 1928.73 385.867 1927 362.667C1926.2 352.4 1925 332.533 1924.33 318.667C1922.73 291.467 1918.07 230 1917.4 229.333C1917 228.933 1890.07 244.8 1863.93 260.8C1856.87 265.2 1849 269.467 1846.6 270.267C1844.33 271.067 1840.2 273.333 1837.67 275.333C1835.13 277.333 1828.2 281.867 1822.33 285.333C1805 295.867 1755.67 327.6 1755 328.667C1753.8 330.533 1706.6 362.533 1700.33 365.867C1693 369.6 1679.4 379.2 1671 386.533C1667.67 389.467 1654.33 399.733 1641.67 409.333C1612.73 431.2 1597 443.6 1590.6 450.133C1587.93 452.933 1582.2 457.6 1577.93 460.533C1566.07 468.667 1535.4 497.467 1489.53 543.333C1448.6 584.267 1427.4 606.8 1424.47 612.533C1423.67 614 1422.07 621.2 1421.13 628.533C1420.07 635.733 1418.6 642.933 1417.8 644.4C1417 646 1415.8 657.867 1415.13 670.933C1414.33 686.267 1413.13 696.667 1411.8 700.133C1410.73 702.933 1408.87 713.067 1407.67 722.667C1406.47 732.133 1403.8 750.267 1401.67 762.8C1399.53 775.467 1397.13 794.933 1396.33 806.133C1395.53 817.467 1394.6 827.6 1394.2 828.667C1393.8 829.733 1392.6 842.533 1391.53 857.333C1390.47 872 1388.73 894.8 1387.53 908C1386.33 921.2 1384.87 942.8 1384.33 956C1383.67 969.2 1381.93 993.2 1380.47 1009.33C1379 1025.47 1376.87 1052.93 1375.8 1070.27C1374.33 1091.33 1373 1103.6 1371.67 1106.8C1370.6 1109.47 1366.2 1114.8 1362.07 1118.53C1352.6 1127.07 1347.13 1132.53 1343.8 1136.67C1332.07 1151.47 1297.93 1190 1283.8 1204.4C1274.2 1214.13 1266.2 1222.27 1266.2 1222.4C1265.93 1222.67 1263.53 1249.47 1260.2 1286.67C1259.53 1295.47 1258.07 1307.47 1257 1313.33C1255.93 1319.2 1254.47 1332.4 1253.53 1342.67C1252.73 1352.93 1251.4 1362 1250.87 1362.8C1250.2 1363.6 1249.13 1370.13 1248.6 1377.33L1247.53 1390.4L1252.33 1396.67C1260.6 1407.87 1296.07 1449.6 1305.27 1458.93C1315.67 1469.6 1328.33 1484.4 1345.27 1505.87C1352.07 1514.4 1361.53 1525.87 1366.33 1531.33C1371 1536.8 1380.47 1548.67 1387.27 1557.47C1394.07 1566.4 1403.53 1578.4 1408.33 1584C1421.93 1600.4 1433.53 1615.87 1433.67 1617.73C1433.67 1620.4 1424.73 1612.93 1405.67 1594.13C1396.33 1584.93 1383.4 1572.53 1377 1566.8C1370.73 1561.07 1362.47 1552.67 1358.73 1548.13C1355.13 1543.6 1342.07 1529.73 1329.8 1517.33C1317.53 1504.8 1295.27 1481.87 1280.33 1466.13C1234.2 1417.87 1222.47 1407.2 1215.13 1407.07C1211 1406.93 1202.87 1412.13 1189.67 1423.33C1181 1430.67 1154.47 1449.2 1145 1454.53C1141.4 1456.67 1133 1462.13 1126.33 1466.67C1110.6 1477.33 1108.87 1478.13 1117.53 1470.4C1121.53 1466.93 1133 1456.53 1142.87 1447.33C1152.87 1438.13 1169.8 1422.67 1180.47 1412.93C1191.27 1403.33 1201 1393.87 1202.2 1392C1206.87 1384.93 1225.8 1209.07 1223 1199.33C1221.93 1195.73 1216.2 1186 1195 1152.8C1193.13 1149.87 1187.8 1142 1183.13 1135.07L1174.6 1122.67L1175.4 1108.67C1175.93 1100.93 1177.53 1071.6 1179 1043.33C1182.73 969.333 1186.47 905.067 1187.8 889.733L1188.6 880.8L1184.2 878.667C1181.93 877.333 1175 875.6 1169.13 874.667C1157.93 872.933 1156.47 873.333 1156.33 878C1156.33 879.067 1154.87 895.333 1153 914C1151.27 932.667 1149.4 951.867 1149 956.667C1148.6 961.467 1147.67 968.667 1147 972.667C1146.33 976.667 1145.13 988.667 1144.33 999.333C1141.93 1032.53 1141.4 1033.87 1121.53 1055.6C1100.6 1078.27 1091 1090.27 1088.87 1096.8C1087.8 1099.6 1086.07 1114.93 1085 1130.93C1083.93 1146.93 1081.53 1179.47 1079.67 1203.33C1077.93 1227.2 1075.8 1262.8 1075 1282.67C1074.2 1302.4 1073.27 1319.6 1073 1320.67C1072.73 1321.73 1071.53 1343.6 1070.33 1369.33C1069.27 1394.93 1067.67 1421.73 1067 1428.67C1066.33 1435.6 1065.4 1446.67 1065 1453.33C1064.47 1459.87 1063.53 1467.2 1062.87 1469.33C1062.2 1471.6 1061.27 1482 1060.6 1492.53L1059.67 1511.73L1064.73 1514.93C1067.53 1516.67 1075.13 1520.4 1081.67 1523.33C1088.2 1526.27 1118.6 1541.07 1149.27 1556.4C1208.87 1586.27 1222.07 1592.67 1224.33 1592.67C1225.8 1592.67 1310.47 1634.67 1325 1642.67C1329.4 1645.07 1348.47 1654.8 1367.27 1664.4C1432.07 1697.33 1443 1704.27 1443 1711.87C1443 1713.87 1445 1720.67 1447.53 1727.07C1450.07 1733.47 1452.73 1741.33 1453.67 1744.67C1456.33 1754.93 1484.2 1840.27 1491.67 1861.33C1495.53 1872.27 1499.93 1885.2 1501.4 1890C1503 1894.8 1507.27 1907.33 1511 1918C1520.73 1945.47 1528.33 1968.93 1528.33 1972C1528.47 1973.47 1530.6 1980.67 1533.13 1988C1535.67 1995.33 1540.73 2010 1544.33 2020.67C1566.73 2087.2 1580.73 2127.07 1582.47 2129.33C1583.53 2130.8 1586.6 2135.33 1589.27 2139.33C1591.8 2143.33 1597.4 2151.73 1601.53 2157.73C1605.67 2163.87 1610.87 2172 1613.27 2175.73C1615.67 2179.6 1620.6 2186.53 1624.2 2191.33C1627.93 2196.13 1636.73 2208 1643.93 2217.73C1651.13 2227.6 1663.67 2244.53 1671.67 2255.47C1679.8 2266.4 1689.93 2280.53 1694.33 2286.8C1706.33 2303.87 1722.47 2325.6 1730.47 2335.33C1734.47 2340.13 1742.07 2349.73 1747.27 2356.8C1752.6 2364 1760.87 2374.8 1765.67 2380.8C1770.47 2386.93 1775 2392.93 1775.67 2394C1778.6 2398.93 1760.87 2381.07 1747 2365.33C1738.6 2355.73 1726.2 2342 1719.27 2334.67C1712.47 2327.47 1704.87 2318.4 1702.33 2314.67C1698.33 2308.53 1674.47 2278.93 1665.93 2269.33C1657 2259.2 1641.13 2239.87 1628.07 2222.67C1609.67 2198.93 1596.2 2181.6 1580.73 2162.13C1565.93 2143.6 1561.93 2135.6 1550.6 2102.67C1545.8 2088.67 1539.67 2071.33 1537 2064C1534.2 2056.67 1530.73 2046.4 1529 2041.33C1527.27 2036.13 1522.2 2022.13 1517.67 2010C1513.13 1997.87 1506.87 1980.8 1503.67 1972C1500.6 1963.2 1493 1942.53 1487 1926C1481 1909.47 1474.33 1891.2 1472.33 1885.33C1470.33 1879.47 1465.93 1867.2 1462.6 1858C1459.27 1848.8 1454.6 1835.33 1452.33 1828C1450.07 1820.67 1447.27 1812.53 1446.33 1810C1445.27 1807.47 1440.33 1792.13 1435.13 1776C1422.33 1736.13 1423 1737.47 1413 1732.67C1408.47 1730.53 1404.33 1728.67 1403.93 1728.67C1403.4 1728.67 1398.07 1725.87 1392.07 1722.53C1385.93 1719.07 1379.27 1715.33 1377 1714.27C1374.87 1713.07 1370.33 1710.27 1367 1707.87C1363.67 1705.6 1355.4 1700.53 1348.6 1696.8C1341.8 1692.93 1330.73 1686.27 1323.93 1682C1308.33 1672 1289 1660.67 1287.53 1660.67C1286.87 1660.53 1283 1658.13 1279 1655.2C1266.07 1645.87 1254.07 1638.27 1245.53 1633.87C1241 1631.6 1231.27 1625.73 1223.93 1620.8C1189.13 1597.47 1183 1593.6 1173.67 1589.2C1168.2 1586.53 1160.2 1582.53 1155.93 1580.4C1151.67 1578.13 1147.8 1576.67 1147.4 1577.07C1147.13 1577.47 1149.27 1580.13 1152.47 1582.93C1169 1597.87 1172.87 1601.73 1179.93 1610.53C1184.2 1615.73 1204.87 1637.33 1225.93 1658.67C1246.87 1679.87 1267.93 1701.87 1272.6 1707.33C1277.13 1712.8 1287.8 1723.87 1296.2 1732C1312.47 1747.73 1331.13 1769.6 1336.6 1779.33C1340.47 1786.27 1343.53 1802.27 1345.67 1827.33C1346.47 1836.53 1348.6 1853.87 1350.33 1866C1353.27 1886.93 1354.33 1896.53 1357.67 1928.67C1362.87 1979.33 1379.93 2075.73 1396.6 2148.67C1399.4 2161.47 1403 2178 1404.47 2185.33L1407 2198.67L1435.4 2226.67C1451 2242 1469.13 2259.47 1475.67 2265.33C1491.53 2279.47 1503.8 2290.93 1526.33 2312.8C1536.6 2322.67 1547.13 2332.53 1549.67 2334.53C1555.8 2339.47 1570.6 2353.47 1598.33 2380.53C1610.87 2392.67 1624.6 2405.87 1629 2409.73C1633.4 2413.73 1645.4 2424.8 1655.67 2434.53C1665.93 2444.27 1678.6 2456 1683.67 2460.67C1688.87 2465.33 1707.4 2483.07 1725 2500C1760.2 2534 1768.2 2541.33 1768.87 2540.53C1769.13 2540.27 1769.8 2521.73 1770.2 2499.33C1771.13 2456 1772.07 2439.33 1773.4 2439.47C1774.47 2439.47 1780.33 2451.2 1789 2470C1801.4 2497.47 1817.67 2530.27 1824.73 2542.13C1828.73 2549.07 1835.8 2561.2 1840.33 2569.33C1845 2577.33 1853.67 2591.73 1859.67 2601.33C1865.67 2610.8 1875.13 2626.13 1880.73 2635.33C1899.4 2666 1901.53 2669.33 1907.67 2676C1911 2679.73 1913.13 2681.33 1912.33 2679.73C1911.67 2678.13 1911 2674.8 1911 2672.4C1911 2670 1902.6 2643.07 1892.2 2612.67C1881.93 2582.27 1872.73 2554.27 1871.8 2550.67C1870.87 2546.93 1868.2 2539.2 1865.93 2533.33C1863.67 2527.47 1853.93 2501.07 1844.6 2474.67C1835.13 2448.27 1824.87 2420.67 1821.93 2413.33C1809.53 2382.13 1796.2 2349.87 1791.8 2339.73C1789.13 2333.73 1787 2328.53 1787 2328.13C1787 2326.8 1775.4 2297.87 1767 2278C1757.27 2255.33 1737.13 2206.27 1728.87 2185.33C1725.8 2177.2 1719.53 2161.33 1715 2150C1710.47 2138.67 1704.2 2122.13 1701.13 2113.33C1697.93 2104.53 1692.6 2090.4 1689.27 2082C1685.93 2073.6 1678.33 2054 1672.33 2038.67C1651.8 1985.73 1633.53 1940.13 1630.07 1933.6C1625.93 1925.33 1612.33 1905.07 1604.6 1895.33C1601.4 1891.33 1592.73 1881.87 1585.4 1874.27C1571.27 1859.6 1569.67 1856.8 1565 1840C1552.2 1794 1548.87 1781.6 1541.8 1754C1537.27 1736.8 1532.73 1719.07 1531.67 1714.67C1529.27 1704.53 1507.8 1621.87 1504.47 1609.33C1493.8 1570 1487.67 1547.87 1484.87 1538.93C1481.13 1526.8 1481 1526 1483.53 1526C1484.47 1526 1504.73 1535.73 1528.47 1547.73C1573.27 1570.27 1619.8 1592.67 1621.67 1592.67C1622.2 1592.67 1632.2 1597.2 1643.93 1602.8C1655.53 1608.4 1672.47 1616.27 1681.67 1620.27C1690.87 1624.27 1699.67 1628.4 1701.13 1629.33C1706.73 1632.93 1768.73 1658.67 1776.33 1660.67C1784.33 1662.53 1810.2 1673.87 1811.8 1676C1812.6 1677.07 1816.2 1686.27 1819.67 1696.4C1823.13 1706.4 1827.53 1718 1829.27 1722C1831 1726 1837.53 1741.87 1843.67 1757.33C1849.8 1772.67 1858.07 1792.53 1862.07 1801.33C1866.07 1810.13 1870.33 1820.67 1871.67 1824.67C1875 1835.07 1904.73 1905.6 1921.67 1943.33C1936.6 1976.67 1938.73 1983.07 1939.53 1998.8C1940.07 2006.8 1940.6 2164.27 1940.87 2348.8C1941.27 2628.93 1941.67 2684.93 1943.13 2688C1945.53 2692.8 1951.53 2695.87 1965.67 2699.47C1982.07 2703.73 2016.47 2703.87 2031.27 2699.87C2044.33 2696.13 2049.8 2692.93 2051.53 2688C2052.33 2685.47 2053.13 2563.07 2053.8 2347.33C2054.33 2136.4 2055.13 2008.67 2055.93 2005.33C2058.2 1996.13 2086.33 1929.73 2105.13 1888.93C2106.87 1885.07 2108.33 1881.6 2108.33 1881.2C2108.33 1880.93 2112.73 1871.2 2118.2 1859.6C2123.67 1848.13 2128.73 1836.27 2129.53 1833.33C2130.33 1830.4 2134.33 1819.87 2138.33 1810C2142.47 1800.13 2149.93 1781.2 2155.13 1768C2160.2 1754.8 2166.33 1739.73 2168.47 1734.67C2170.73 1729.47 2175.27 1717.87 2178.47 1708.67C2188.07 1682.4 2190.87 1676.8 2194.87 1675.73C2196.73 1675.33 2205.27 1672 2213.67 1668.27C2222.07 1664.67 2231.67 1660.93 2235 1660C2246.73 1656.67 2279 1642.13 2328.33 1617.73C2443.4 1560.8 2471.13 1546.93 2487 1538C2496.07 1532.93 2505.27 1528.13 2507.4 1527.33C2510.87 1526.27 2511.13 1526.27 2510.33 1528.4C2509.67 1529.6 2508.73 1533.6 2508.07 1537.33C2505.8 1549.87 2500.07 1573.33 2496.07 1586.67C2493.8 1594 2490.6 1604.8 2489 1610.67C2487.27 1616.53 2484.6 1625.87 2483 1631.33C2481.4 1636.8 2477.27 1651.47 2474.07 1664C2467.4 1689.07 2462.73 1706 2456.47 1728C2450.87 1747.6 2444.73 1771.07 2441.8 1783.47C2440.47 1789.07 2439 1794.27 2438.47 1795.07C2438.07 1795.73 2435 1806.93 2431.67 1819.73C2423.13 1853.6 2421.27 1857.6 2406.87 1872.67C2383.4 1897.33 2365.8 1922.53 2361 1937.87C2360.47 1939.6 2359.13 1943.2 2357.93 1945.87C2356.73 1948.53 2355.13 1953.07 2354.2 1956C2351.93 1963.2 2345.8 1980 2339.67 1995.33C2336.87 2002.27 2333.53 2010.93 2332.33 2014.67C2331 2018.27 2327.13 2028.53 2323.8 2037.2C2320.47 2045.87 2317.67 2053.6 2317.67 2054.13C2317.67 2054.8 2316.2 2058.4 2314.47 2062.27C2309.67 2073.2 2304.2 2088 2301.67 2097.73C2299 2107.73 2294.6 2120.67 2291.8 2126.67C2290.73 2128.8 2287.67 2136.67 2285 2144C2282.33 2151.33 2278.87 2160.93 2277.13 2165.33C2275.4 2169.73 2272.33 2177.87 2270.33 2183.33C2268.33 2188.8 2264.73 2198.13 2262.2 2204C2259.8 2209.87 2254.47 2223.33 2250.33 2234C2246.2 2244.67 2240.87 2257.87 2238.33 2263.33C2231.4 2278.8 2216.33 2317.73 2216.33 2320.13C2216.33 2321.33 2213.93 2327.73 2211 2334.27C2201.27 2355.73 2192.47 2379.33 2177.53 2424C2165.93 2458.67 2141.67 2528.27 2137.8 2538C2136.47 2541.33 2133.8 2550 2131.8 2557.33C2129.8 2564.67 2121.93 2589.2 2114.47 2612C2100.07 2655.07 2093.67 2676.8 2093.67 2681.33C2093.8 2685.87 2103 2674.4 2117.27 2651.87C2124.47 2640.53 2135.67 2623.07 2142.2 2612.93C2169.8 2570.53 2197 2523.2 2215 2486.67C2225.13 2466.13 2233.8 2448 2234.2 2446.27C2234.73 2444.67 2235.93 2443.33 2236.73 2443.33C2237.93 2443.33 2238.47 2454.93 2238.73 2490.93C2239 2517.2 2239.4 2538.8 2239.67 2539.07C2241.67 2541.2 2251.13 2532.8 2283.67 2500.27C2304.2 2479.73 2334.2 2450.53 2350.33 2435.47C2366.47 2420.4 2395.13 2392.93 2414.07 2374.67C2433 2356.27 2451.4 2338.93 2454.73 2336C2458.2 2333.07 2474.47 2317.2 2491 2300.8C2507.53 2284.4 2523.4 2269.2 2526.33 2267.07C2529.27 2264.93 2540.33 2254.67 2551 2244.27C2561.67 2233.73 2574.47 2221.6 2579.4 2217.33C2584.6 2212.93 2589.4 2207.47 2590.47 2204.8C2591.67 2202.13 2594.6 2190.13 2597 2178C2599.53 2165.87 2603.93 2144.93 2606.73 2131.33C2622.47 2058.4 2639.8 1954.13 2645 1901.33C2646.2 1889.6 2648.6 1868.93 2650.33 1855.33C2652.07 1841.73 2654.2 1823.47 2655 1814.67C2657.13 1791.2 2658.33 1786.93 2665.93 1776.93C2673.27 1767.2 2690.07 1748.67 2706.47 1731.73C2712.47 1725.73 2720.33 1717.33 2723.8 1713.07C2727.4 1708.93 2732.73 1702.8 2735.53 1699.47C2744.47 1689.07 2764.6 1667.33 2772.2 1660.13C2780.2 1652.4 2808.6 1620.27 2817.4 1608.93C2820.6 1604.8 2827.27 1597.47 2832.33 1592.67C2841 1584.4 2845.8 1578 2843.27 1578C2842.6 1578 2839.53 1579.73 2836.33 1581.87C2833.13 1584 2829.8 1585.47 2828.87 1585.07C2828.07 1584.8 2826.87 1585.2 2826.33 1585.87C2825.93 1586.67 2823.53 1588.27 2821 1589.2C2817 1590.93 2808.6 1596.4 2768.33 1623.6C2728.07 1650.8 2712.73 1660.67 2710.87 1660.67C2709.8 1660.67 2706.73 1662.13 2704.07 1664C2701.4 1665.87 2698.73 1667.33 2698.2 1667.33C2697.67 1667.33 2696.2 1668.13 2695.13 1669.2C2693.93 1670.13 2690.2 1672.53 2686.73 1674.4C2683.27 1676.27 2676.47 1680.4 2671.4 1683.6C2666.47 1686.8 2660.73 1690.27 2658.73 1691.33C2656.73 1692.4 2648.6 1697.33 2640.73 1702.13C2632.73 1707.07 2621.4 1713.6 2615.27 1716.67C2609.27 1719.73 2604.07 1722.8 2603.67 1723.33C2603.27 1724 2598.87 1726 2593.93 1727.87C2589 1729.73 2582.73 1733.2 2580.07 1735.33C2572.73 1741.47 2566.73 1755.47 2561 1780.67C2559.8 1785.47 2557.67 1792.93 2556.2 1797.33C2554.6 1801.73 2552.6 1808.4 2551.67 1812.13C2550.73 1815.87 2549.27 1820.13 2548.47 1821.73C2547.67 1823.33 2545.8 1828.93 2544.47 1834.27C2543 1839.6 2537.93 1855.33 2532.87 1869.33C2527.93 1883.2 2521.27 1902.27 2518.07 1911.73C2515 1921.07 2511.8 1929.73 2511 1931.07C2510.33 1932.27 2507.67 1939.6 2505.13 1947.33C2499.93 1963.33 2492.73 1984 2483.27 2010C2479.67 2019.87 2475.67 2032.13 2474.33 2037.33C2473.13 2042.4 2467.4 2058.67 2461.67 2073.33C2455.93 2088 2448.73 2107.87 2445.8 2117.47C2439.4 2137.6 2433.4 2147.6 2411.4 2174.8C2404.2 2183.73 2393.53 2196.93 2387.67 2204.13C2375.53 2219.33 2346.87 2253.6 2322.2 2282.67C2313 2293.6 2303.8 2305.07 2301.93 2308C2298.33 2313.73 2279.53 2336.27 2277.8 2336.93C2277.13 2337.2 2266.87 2348.4 2254.73 2362C2232.47 2386.93 2223 2396.67 2223 2394.8C2223 2393.07 2259.8 2345.6 2270.33 2333.87C2273.93 2329.6 2282.73 2318.4 2289.67 2308.8C2306.47 2285.6 2319.53 2268 2331 2253.33C2336.2 2246.67 2346.6 2232.93 2353.93 2222.67C2361.4 2212.4 2369.4 2201.87 2371.8 2199.33C2374.07 2196.8 2380.73 2187.73 2386.47 2179.33C2392.07 2170.93 2398.73 2161.6 2401 2158.67C2407 2151.33 2419.53 2132.8 2422.33 2127.2C2423.67 2124.8 2429.13 2109.47 2434.47 2093.33C2439.8 2077.2 2450.6 2045.07 2458.33 2022C2466.07 1998.93 2473.27 1976.13 2474.33 1971.33C2475.4 1966.53 2479.27 1953.6 2483 1942.67C2502.2 1886 2552.47 1728.53 2554.33 1718.93C2556.47 1708.53 2577.53 1695.73 2675 1646.27C2700.33 1633.47 2723.4 1621.47 2726.33 1619.73C2731.13 1616.93 2749.13 1608 2796.33 1584.93C2804.73 1580.8 2815.27 1575.33 2819.67 1572.67C2831.53 1565.33 2884.07 1537.87 2902.33 1529.33C2931.27 1515.73 2940.6 1511.07 2941.13 1509.47C2941.53 1508.53 2940.73 1499.87 2939.67 1490C2938.47 1480.13 2937 1463.6 2936.33 1453.33C2935.67 1443.07 2934.47 1426.27 2933.67 1416C2931.67 1390.67 2924.73 1273.47 2923 1237.33C2922.33 1221.2 2921.13 1199.6 2920.33 1189.33C2919.67 1179.07 2918.33 1152.4 2917.53 1130.13C2916.33 1096.67 2915.67 1088.93 2913.8 1086C2911.4 1082 2904.87 1074.27 2884.6 1051.47C2869.93 1034.93 2867 1029.2 2867 1016.8C2867 1013.47 2866.33 1006.13 2865.67 1000.67C2864.87 995.2 2863.4 981.6 2862.33 970.667C2854.07 889.867 2852.47 875.333 2851.8 874.133C2850.2 871.733 2842.47 872.4 2831.13 876L2820.33 879.467V885.733C2820.33 900.667 2823.27 963.333 2825 985.333C2827.27 1011.87 2829.67 1073.2 2829.8 1103.47L2829.93 1123.07L2825 1129.47C2822.33 1132.93 2818.47 1139.2 2816.33 1143.33C2812.07 1151.73 2799.8 1170.53 2795.67 1174.93C2794.07 1176.53 2789.93 1182.8 2786.33 1188.93L2779.67 1200L2779.93 1217.33C2780.07 1226.8 2781.13 1240.67 2782.33 1248C2784.2 1260 2785.13 1272 2787.67 1317.33C2788.07 1324.67 2789.27 1335.2 2790.33 1340.67C2791.4 1346.13 2792.73 1358.27 2793.4 1367.47C2794.47 1383.33 2794.73 1384.8 2798.87 1391.2C2801.67 1395.47 2813.93 1407.6 2832.73 1424.27C2848.87 1438.8 2865.53 1453.73 2869.53 1457.47C2873.67 1461.2 2879.8 1466.67 2883.27 1469.47C2893.13 1477.73 2890.73 1477.2 2877.13 1468.27C2870.2 1463.73 2857.53 1455.73 2849 1450.67C2840.33 1445.47 2824.2 1435.07 2813.13 1427.47C2788.87 1410.67 2779.67 1405.6 2775.8 1406.8C2771.67 1408.13 2761.67 1416.27 2755.67 1423.47C2752.73 1426.93 2745.67 1435.33 2739.8 1442.27C2734.07 1449.07 2722.07 1462.13 2713.13 1471.33C2704.2 1480.53 2691.53 1494 2685 1501.33C2678.47 1508.67 2666.73 1521.33 2659 1529.47C2651.27 1537.47 2642.33 1547.33 2639 1551.33C2628.33 1564.13 2617.53 1575.2 2615.93 1574.93C2615 1574.8 2614.47 1575.47 2614.73 1576.27C2614.87 1577.2 2614.07 1578 2612.87 1578C2611.53 1578 2611 1578.67 2611.53 1580.13C2611.93 1581.2 2611.8 1581.73 2611 1581.33C2610.2 1580.93 2609.67 1581.33 2609.67 1582.4C2609.67 1583.47 2607.13 1586.4 2604.07 1589.07C2600.87 1591.6 2592.33 1599.73 2585 1607.33C2568.07 1624.53 2564.87 1626.27 2573.4 1613.73C2581.13 1602.53 2580.07 1603.87 2612.2 1563.87C2644.6 1523.6 2642.6 1526.13 2655.8 1509.33C2675.8 1483.6 2692.87 1462.93 2698.47 1457.33C2704.33 1451.6 2724.87 1426.67 2729.13 1420C2730.47 1417.87 2735.4 1410.93 2740.07 1404.8C2747.93 1394 2748.33 1393.2 2747.67 1387.47C2747.27 1384.13 2746.47 1375.87 2745.67 1369.33C2745 1362.67 2743.13 1345.6 2741.67 1331.33C2740.2 1317.07 2738.47 1300.8 2737.8 1295.33C2737 1289.87 2736.07 1277.87 2735.67 1268.67C2735.13 1259.47 2733.93 1245.47 2732.87 1237.47C2731.27 1225.07 2730.33 1222 2726.2 1215.07C2722.07 1208.27 2696.6 1175.87 2652.47 1121.33C2647.13 1114.67 2642.07 1107.87 2641 1106C2639.27 1102.53 2635.53 1073.07 2634.33 1051.33C2633.8 1044.4 2633 1034.8 2632.33 1030C2631.53 1025.2 2630.47 1013.2 2629.67 1003.33C2629 993.467 2627.8 981.067 2627 976C2626.33 970.8 2624.47 953.467 2623 937.333C2621.4 921.2 2619.4 901.6 2618.33 893.867C2616.47 879.333 2611 853.6 2610.07 854.533C2609.67 854.8 2610.6 860.4 2611.8 866.933C2613.67 876 2614.2 885.2 2614.33 906.667C2614.33 937.467 2613.53 941.733 2607 948C2603.4 951.333 2603 951.6 2603 949.2C2603 946.933 2602.6 947.067 2600.33 950C2598.87 951.867 2597.67 954.267 2597.53 955.333C2597.53 956.4 2596.6 953.067 2595.53 948C2593.53 938.267 2590.87 911.6 2584.33 837.333C2581.13 801.2 2576.73 731.467 2575 691.333C2574.33 673.333 2573.27 650.8 2572.87 641.067L2572.07 623.467L2562.73 613.067C2553 602.267 2534.87 583.733 2491.53 540C2465.4 513.6 2439.53 489.2 2417.4 469.867C2404.33 458.533 2400.87 455.733 2362.33 425.467C2350.6 416.133 2336.2 404.8 2330.33 400.133C2315.93 388.667 2286.2 367.733 2279.8 364.4C2274.07 361.467 2252.47 346.933 2243 339.733C2235.93 334.267 2209.67 317.067 2185 301.733C2175.53 295.733 2165.53 289.333 2163 287.333C2157.4 283.2 2137.93 271.867 2132.73 269.867C2125.93 267.333 2088.33 244.133 2076.2 234.933C2069.53 230 2063.93 226 2063.53 226C2063.27 226 2062.73 226.8 2062.33 227.6ZM1902.73 362.267C1902.47 370.267 1906.87 452.8 1907.67 453.867C1907.93 454.533 1909.13 482.8 1910.33 516.8C1911.4 550.8 1913.13 592.133 1914.2 608.667C1915.4 625.2 1916.87 660.8 1917.67 688C1918.47 715.067 1919.67 745.067 1920.33 754.667C1921 764.133 1922.2 789.733 1923 811.333C1923.8 832.933 1925.27 866.267 1926.33 885.333C1927.4 904.4 1929.27 940.933 1930.33 966.667C1931.4 992.267 1933.53 1035.47 1935 1062.67C1936.47 1089.73 1938.2 1128.53 1939 1148.67C1939.8 1168.8 1941.27 1196 1942.33 1209.2C1943.4 1222.27 1944.87 1247.87 1945.67 1265.87C1946.47 1283.87 1947.8 1302.8 1948.47 1308C1949.53 1316.4 1951.53 1339.07 1952.73 1357.73L1953.27 1364.67L1950.47 1362.13C1948.87 1360.8 1945.53 1358.67 1943 1357.33C1940.47 1356.13 1932.6 1351.33 1925.67 1346.67C1918.73 1342.13 1905.53 1334 1896.33 1328.53C1887.13 1323.2 1875 1315.6 1869.13 1311.73C1863.4 1307.87 1857.93 1304.67 1857 1304.67C1856.07 1304.67 1854.6 1303.73 1853.53 1302.53C1851.4 1300 1838.47 1291.33 1836.73 1291.33C1836.07 1291.33 1833.13 1289.6 1830.2 1287.33C1827.4 1285.2 1824.47 1283.33 1823.93 1283.33C1822.33 1283.33 1772.73 1252.8 1747.67 1236.53C1741.13 1232.27 1731.53 1226.27 1726.33 1223.2C1715.53 1216.8 1711.27 1214.13 1697.8 1205.33C1692.33 1201.87 1685.8 1197.6 1683.13 1196.13C1669.4 1188.27 1625.4 1161.07 1597.67 1143.33C1588.47 1137.47 1576.07 1129.87 1569.93 1126.4C1546.07 1112.67 1542.73 1110.67 1528.6 1101.47C1523 1098 1517.53 1094.67 1516.47 1094.27C1515.27 1093.87 1512.2 1092 1509.67 1090C1507.13 1088 1502.87 1085.33 1500.33 1084C1494.87 1081.2 1475.8 1068.67 1470.6 1064.4L1466.73 1061.33L1468.2 1029.33C1471.67 954.933 1476.6 871.067 1483.13 778.667C1489.67 686.933 1489.67 686 1491.53 686C1492.33 686 1500.73 678 1510.33 668.267C1547.93 629.867 1617 565.733 1654.33 534.667C1708.07 490 1723.4 478.8 1835 404.4C1864.73 384.533 1891.67 366 1895 363.2C1898.33 360.4 1901.4 358.133 1901.93 358.133C1902.47 358 1902.73 360 1902.73 362.267ZM2082.87 361.867C2085.8 367.067 2116.07 388.8 2171.27 425.067C2193 439.467 2217 455.6 2224.6 460.933C2232.2 466.4 2243 474 2248.73 478C2290.87 507.467 2352.73 556 2391.4 590.4C2415.4 611.733 2464.33 658.533 2485.13 680L2495.93 691.2V700.267C2495.8 708.933 2497.53 728.667 2503 786.667C2505.4 810.933 2506.73 829.867 2509.13 872C2509.53 880 2510.73 893.867 2511.8 902.667C2512.73 911.467 2514.2 933.333 2515 951.333C2516.33 983.333 2517.93 1006.8 2520.33 1028C2521 1033.87 2521.53 1046 2521.53 1054.93C2521.67 1070 2521.53 1071.2 2519 1072C2517.53 1072.4 2516.33 1073.33 2516.33 1073.87C2516.33 1074.8 2508.2 1080.67 2498.33 1086.67C2496.2 1088 2491.27 1091.6 2487.53 1094.8C2483.67 1097.87 2479.13 1100.8 2477.4 1101.33C2475.67 1101.87 2473.4 1103.2 2472.33 1104.13C2467.67 1108.4 2462.07 1112.4 2457.67 1114.67C2455.13 1115.87 2452.07 1117.73 2451 1118.67C2449.93 1119.6 2445.13 1122.53 2440.33 1125.07C2431.27 1130 2420.47 1136.67 2411.93 1142.93C2409 1144.93 2403.53 1148.4 2399.8 1150.67C2395.93 1152.8 2391 1155.87 2388.87 1157.2C2386.73 1158.67 2382.87 1161.07 2380.33 1162.67C2375.4 1165.73 2366.73 1171.33 2351.53 1181.07C2346.33 1184.4 2340.73 1187.87 2338.87 1188.67C2337.13 1189.33 2333 1192.13 2329.67 1194.67C2326.33 1197.33 2321.13 1200.53 2318.2 1202C2315.13 1203.47 2311.93 1205.47 2311 1206.67C2310.07 1207.73 2307.8 1209.47 2305.8 1210.4C2283.27 1222.27 2257.67 1237.33 2236.2 1251.47C2230.47 1255.2 2213.8 1265.33 2209.27 1267.6C2207 1268.8 2204.33 1270.4 2203.53 1271.07C2202.87 1271.73 2197.4 1275.07 2191.53 1278.53C2185.8 1282 2178.2 1286.53 2174.73 1288.67C2171.13 1290.8 2168.33 1292.13 2168.33 1291.6C2168.33 1291.07 2167.67 1291.73 2166.87 1293.07C2165 1296.27 2158.07 1299.73 2157 1297.87C2156.33 1296.93 2155.53 1297.07 2154.2 1298.13C2152.73 1299.33 2152.6 1300 2153.67 1300.67C2154.6 1301.2 2153.27 1302.53 2150.47 1303.87C2147.93 1305.07 2145.4 1306.67 2145 1307.47C2144.47 1308.13 2138.33 1311.6 2131.27 1315.07C2117.27 1322 2113.27 1324.4 2077.93 1346.93C2065.13 1355.2 2053.67 1362 2052.47 1362C2051.13 1362 2049.53 1362.67 2048.6 1363.6C2047.4 1364.8 2046.6 1364.8 2045.53 1363.73C2043.53 1361.73 2040.33 1363.07 2039 1366.53C2037.4 1370.27 2037.4 1352.13 2039 1319.33C2039.67 1305.07 2041.13 1265.73 2042.2 1232C2043.4 1198.27 2044.87 1155.33 2045.67 1136.67C2046.33 1118 2047.93 1077.2 2049 1046C2050.07 1014.8 2051.67 972.533 2052.33 952C2053.13 931.467 2054.6 890 2055.67 860C2058.07 793.733 2060.87 728.133 2064.33 658.667C2065.8 630 2067.53 591.6 2068.33 573.333C2069.67 539.2 2070.87 512.533 2074.33 434C2075.53 409.467 2077 383.6 2077.67 376.667C2078.33 369.733 2079 362.933 2079 361.6C2079 358.533 2081.27 358.667 2082.87 361.867ZM2574.2 1057.33C2573.67 1058.4 2573.13 1059.33 2572.87 1059.33C2572.6 1059.33 2572.33 1058.4 2572.33 1057.33C2572.33 1056.27 2572.87 1055.33 2573.67 1055.33C2574.33 1055.33 2574.6 1056.27 2574.2 1057.33ZM1431 1058.93C1431 1060.27 1435.53 1077.2 1441.13 1096.67C1446.73 1116.13 1455.4 1148.13 1460.33 1168C1469.67 1205.2 1472.33 1215.2 1475.8 1226.67C1477.67 1233.2 1478.33 1236 1484.87 1265.87C1486.6 1274.13 1488.6 1281.47 1489.27 1282.13C1492.2 1285.07 1528.33 1305.87 1543 1312.93C1552.2 1317.47 1573.13 1328.67 1589.67 1338C1606.2 1347.33 1627.53 1358.93 1637 1364C1646.6 1368.93 1657.67 1374.93 1661.67 1377.07C1695.53 1395.73 1705.13 1400.8 1715 1405.33C1726.2 1410.53 1760.2 1427.73 1781 1438.67C1786.87 1441.73 1800.73 1448.93 1811.67 1454.67C1822.73 1460.27 1835.27 1466.93 1839.67 1469.33C1847.27 1473.47 1885.4 1493.33 1899.67 1500.53C1903.4 1502.4 1908.2 1504.53 1910.33 1505.33C1912.6 1506 1922.47 1510.8 1932.33 1515.87C1977.53 1539.2 1998.07 1548.67 2003 1548.67C2006.6 1548.67 2016.73 1544.27 2041.8 1531.73C2060.47 1522.4 2078.73 1512.93 2082.33 1510.53C2086.07 1508.13 2090.87 1505.73 2093 1505.2C2095.27 1504.67 2099.13 1503.07 2101.67 1501.6C2104.2 1500.13 2117.13 1493.33 2130.33 1486.27C2143.53 1479.33 2157.67 1471.73 2161.67 1469.33C2171.53 1463.47 2241.67 1425.87 2258.33 1417.6C2307.13 1393.33 2322.73 1385.33 2325.67 1383.33C2327.53 1382 2336.87 1376.93 2346.33 1372C2391.27 1348.8 2402.73 1342.67 2407.67 1339.33C2414.47 1334.8 2447.67 1317.6 2453.13 1315.73C2455.4 1314.93 2464.73 1310.13 2473.8 1305.2C2482.87 1300.27 2496.07 1293.2 2503 1289.6C2509.93 1286 2515.8 1282.8 2516.07 1282.67C2516.33 1282.4 2517.93 1275.47 2519.67 1267.07C2524.33 1244.53 2549.8 1143.07 2556.47 1120.27C2557.93 1115.2 2559.8 1107.73 2560.47 1103.6C2561.13 1099.33 2564.33 1087.87 2567.53 1078L2573.4 1060V1090C2573.4 1106.53 2572.87 1145.2 2572.2 1176C2571.53 1206.8 2571 1252.93 2571 1278.67C2571 1320.13 2569.93 1346.93 2567.53 1368C2566.87 1374 2566.2 1375.07 2561.27 1378.13C2553.67 1383.07 2540.73 1389.33 2534.33 1391.33C2531.4 1392.27 2528.47 1393.47 2527.67 1394C2527 1394.53 2513.8 1401.47 2498.33 1409.33C2450.2 1434.13 2414.87 1452.67 2413 1454.13C2412.33 1454.67 2408.47 1456.27 2404.6 1457.73C2400.73 1459.2 2391.67 1463.73 2384.6 1467.73C2377.53 1471.73 2359.93 1481.07 2345.67 1488.4C2331.4 1495.73 2315.53 1504.13 2310.33 1507.07C2300.07 1512.93 2288.2 1518.93 2263 1531.2C2253.8 1535.6 2239.13 1543.07 2230.33 1547.87C2205.13 1561.47 2144.6 1592.67 2143.4 1592.67C2142.73 1592.67 2128.2 1599.73 2111 1608.4C2081.8 1622.93 2070.73 1628.27 2061.13 1632C2057.93 1633.2 2056.87 1635.07 2054.2 1643.33C2049.93 1656.4 2045 1676.27 2043 1688C2042.2 1693.07 2039.4 1705.73 2037 1716C2034.6 1726.27 2031 1742.8 2029 1752.67C2027.13 1762.53 2024.6 1774.53 2023.4 1779.33C2022.33 1784.13 2019.93 1795.2 2018.2 1804C2008.87 1851.33 2000.33 1888.67 1998.73 1888.67C1997.4 1888.67 1993.27 1874.67 1987.13 1850C1975.27 1801.33 1963.13 1751.33 1960.33 1738.67C1952.6 1704.53 1934.6 1633.2 1933.27 1631.73C1932.33 1630.8 1918.47 1623.47 1902.33 1615.47C1886.2 1607.33 1871.53 1599.87 1869.67 1598.8C1867.8 1597.73 1855.53 1591.47 1842.33 1584.93C1814.33 1570.93 1793.8 1560.13 1775.67 1550.27C1768.6 1546.27 1747.4 1535.33 1728.6 1525.73C1709.8 1516.27 1688.33 1505.2 1681 1501.33C1659.13 1489.6 1619.13 1468.93 1607 1463.07C1600.73 1460.13 1594.47 1456.93 1593 1456.27C1589.53 1454.4 1582.87 1451.2 1580.07 1449.87C1576.73 1448.27 1547.27 1433.07 1538.33 1428.27C1489.93 1402.4 1469.27 1391.87 1455.27 1386.13C1450.33 1384 1444.2 1380.93 1441.53 1379.2C1438.87 1377.47 1433.8 1374.27 1430.33 1372.27L1423.93 1368.53L1424.73 1332.93C1425.27 1313.33 1425.93 1247.47 1426.33 1186.67C1427.13 1074.8 1427.53 1056.67 1429.8 1056.67C1430.47 1056.67 1431 1057.73 1431 1058.93ZM1109 1478C1108.6 1478.67 1107.13 1479.33 1105.93 1479.33C1103.93 1479.33 1103.93 1479.07 1105.67 1478C1108.33 1476.27 1110.07 1476.27 1109 1478Z" fill="white"/>
<path d="M2140.33 1306.67C2139.27 1307.87 2139.27 1308.67 2140.07 1308.67C2141.67 1308.67 2143.53 1306.13 2142.6 1305.2C2142.33 1304.93 2141.27 1305.47 2140.33 1306.67Z" fill="white"/>
<path d="M2610.47 465.467C2609.93 470.533 2609 478.533 2608.2 483.333C2606.07 495.867 2605 599.467 2606.87 612.4C2607.67 618 2609.27 647.2 2610.33 677.333C2611.4 707.333 2613.27 744 2614.33 758.667C2615.4 773.333 2617.27 797.6 2618.33 812.667C2620.07 838.267 2622.73 856.4 2625.53 862.667C2626.2 864.133 2627.13 866.267 2627.4 867.333C2627.93 868.933 2628.2 868.933 2628.2 867.067C2628.33 865.333 2629.67 864.933 2634.6 864.933C2638.07 864.933 2641.13 864.267 2641.4 863.467C2641.67 862.667 2642.73 862 2643.8 862C2644.87 862 2645.67 860.8 2645.67 859.2C2645.67 857.733 2646.33 856.933 2647 857.333C2647.8 857.867 2648.07 858.8 2647.67 859.467C2647.13 860.133 2647.4 860.667 2648.07 860.667C2650.07 860.667 2652.07 870.933 2654.33 892.667C2655.53 903.333 2657.27 915.6 2658.33 920C2659.4 924.4 2660.87 938.133 2661.67 950.667C2662.47 963.067 2664.2 985.867 2665.67 1001.33C2667.13 1016.67 2668.87 1040.67 2669.53 1054.67C2671.4 1091.47 2669.8 1088.13 2705.4 1132.27C2713 1141.6 2723.27 1154.4 2728.07 1160.53C2739.8 1175.33 2743.93 1179.6 2746.07 1179.07C2748.07 1178.4 2756.2 1167.33 2771.13 1144.67C2777.67 1134.8 2785.13 1124.13 2787.67 1120.93L2792.33 1115.07L2792.2 1094.27C2792.2 1082.8 2791.67 1065.2 2791 1055.33C2790.33 1045.47 2789.13 1023.47 2788.33 1006.67C2787.67 989.733 2786.6 974.267 2786.2 972.133C2785.8 970 2783.13 965.867 2780.33 962.8C2774.6 956.533 2738.6 903.2 2735.67 896.533C2732.87 890.267 2710.33 855.067 2695.27 833.333C2681.27 813.333 2655.93 772.267 2654.33 767.333C2653.8 765.467 2650.73 759.2 2647.53 753.2C2641 740.933 2639.93 735.733 2637 703.333C2635 679.733 2634.33 672.933 2629.67 613.333C2624.87 551.467 2614.73 459.867 2612.47 457.6C2611.67 456.8 2610.87 460 2610.47 465.467Z" fill="white"/>
<path d="M1365.13 459.467C1363.93 463.333 1358.73 501.867 1357.4 516.667C1356.73 525.067 1354.33 550 1352.07 572C1349.93 594 1347.53 621.6 1346.87 633.333C1346.2 645.067 1345 658.933 1344.2 664.267C1343.4 669.6 1342.07 685.467 1341 699.6C1339.93 713.733 1338.2 732.267 1337.13 740.667C1335.93 749.067 1334.2 764 1333 773.867C1330.33 797.6 1325.13 809.2 1303.4 840C1297 849.067 1273.67 887.467 1267.4 899.333C1259.8 913.333 1256.6 918.667 1239.67 944.667C1222.6 970.8 1222.6 970.667 1222.2 978.667C1221.27 995.2 1218.87 1057.47 1218.07 1084.8L1217.27 1114.93L1229.27 1134.13C1251.67 1170.13 1253.67 1173.33 1256.87 1177.2L1260.07 1181.07L1267.93 1172.53C1272.33 1167.87 1280.6 1158.27 1286.33 1151.33C1292.07 1144.4 1302.33 1132.93 1309 1126C1324.73 1109.73 1339 1093.07 1339 1090.93C1339 1090 1340.2 1073.07 1341.67 1053.33C1343.13 1033.47 1345 1003.47 1345.67 986.667C1347.13 951.733 1352.73 872.267 1355.67 843.333C1357.67 823.733 1359 809.867 1365 746C1371.67 676 1372.87 555.467 1367.8 464.4C1367.53 459.067 1366.07 456.4 1365.13 459.467Z" fill="white"/>
<path d="M741.667 1181.47C741.667 1182.53 742.333 1183.07 743 1182.67C743.8 1182.13 744.067 1181.2 743.667 1180.53C742.467 1178.67 741.667 1179.07 741.667 1181.47Z" fill="white"/>
<path d="M2225.13 1774.27C2224.07 1776.67 2222.87 1780.8 2222.33 1783.33C2221.93 1785.87 2220.6 1790.67 2219.67 1794C2218.6 1797.33 2217.13 1805.07 2216.33 1811.33C2215.13 1822 2211.4 1839.2 2205.53 1862C2202.73 1872.93 2194.07 1909.47 2189 1931.33C2182.6 1959.33 2180.47 1969.47 2179.67 1975.33C2179.13 1978.67 2177.4 1989.07 2175.67 1998.67C2171.93 2018.53 2166.07 2055.2 2164.87 2066C2164.47 2070 2163 2080.53 2161.53 2089.33C2160.2 2098.13 2158.07 2113.07 2157 2122.67C2154.33 2145.73 2148.87 2185.47 2145.67 2206C2144.2 2215.2 2142.47 2228.93 2141.67 2236.67C2140.87 2244.4 2139.67 2253.2 2139 2256.13C2138.33 2259.2 2136.87 2269.73 2135.67 2279.47C2134.47 2289.33 2132.73 2302.13 2131.67 2308C2130.73 2313.87 2129.53 2324.27 2129 2331.2C2128.6 2338 2127.4 2348.27 2126.33 2353.87C2124.6 2362.8 2119 2403.33 2119 2406.53C2119 2407.2 2120.2 2406.67 2121.53 2405.47C2122.87 2404.27 2125.4 2398.8 2127 2393.6C2128.6 2388.27 2134.07 2371.73 2139 2356.67C2144.07 2341.6 2152.2 2316.67 2157.13 2301.33C2161.93 2285.87 2167.67 2268.27 2169.67 2262C2171.8 2255.73 2175 2245.2 2177 2238.67C2178.87 2232 2185.53 2211.07 2191.53 2192C2207.93 2141.07 2213.13 2124 2216.33 2111.33C2219.27 2099.6 2223.27 2086.4 2238.47 2038.67C2243.27 2023.2 2252.33 1994.53 2258.47 1974.93C2264.6 1955.33 2271.93 1932.53 2274.73 1924.27C2282.33 1902.4 2283.53 1896.53 2281.67 1890.4C2280.73 1887.6 2275.27 1874.8 2269.67 1861.87C2263.93 1848.93 2254.33 1826.4 2248.33 1811.87C2235.93 1781.87 2230.2 1770 2228.2 1770C2227.53 1770 2226.07 1772 2225.13 1774.27Z" fill="white"/>
<path d="M1761.8 1787.87C1758.07 1795.47 1755 1802 1755 1802.4C1755 1803.33 1734.73 1849.33 1724.87 1870.8C1720.07 1881.2 1715.93 1891.6 1715.53 1894.13C1714.73 1899.2 1717.8 1912.8 1725 1934.67C1727.67 1942.67 1733.13 1959.47 1737 1972C1741 1984.4 1745.13 1997.07 1746.2 2000C1747.27 2002.93 1752.07 2017.33 1756.87 2032C1761.67 2046.67 1770.07 2072 1775.53 2088.27C1781 2104.67 1785.8 2120 1786.33 2122.27C1787.27 2126.53 1800.73 2167.73 1820.2 2225.2C1825.4 2240.53 1829.67 2253.6 1829.67 2254.27C1829.67 2254.93 1831.13 2259.2 1832.87 2263.73C1834.73 2268.27 1838.6 2280.13 1841.67 2290C1844.73 2299.87 1850.47 2317.6 1854.6 2329.33C1858.6 2341.07 1867 2365.6 1873.27 2384C1879.53 2402.27 1885.13 2418.27 1885.8 2419.33C1887.67 2422.67 1887.27 2418.53 1884.33 2406.67C1882.87 2400.8 1881.67 2393.87 1881.67 2391.33C1881.67 2388.8 1880.47 2380.67 1879.13 2373.33C1875.53 2354.4 1872.73 2336.8 1870.47 2320.67C1869.4 2312.93 1866.73 2295.6 1864.47 2282C1860.07 2255.07 1854.07 2214.67 1845.67 2154C1842.73 2132.4 1839.4 2108.67 1838.2 2101.33C1837.13 2094 1835.93 2085.87 1835.67 2083.33C1832.6 2060 1818.07 1976.8 1813 1953.33C1811.13 1944.53 1808.47 1932.27 1807.13 1926C1805.67 1919.73 1802.07 1904.4 1799.13 1892C1794.47 1872.93 1786.47 1837.47 1778.2 1799.33C1775.67 1787.6 1771 1774 1769.67 1774C1769 1774 1765.4 1780.27 1761.8 1787.87Z" fill="white"/>
<path d="M3322.33 2734.93L3318.33 2738.4L3317.67 2868.53C3317.13 2980.8 3316.73 2999.07 3315 3001.6C3311.4 3007.2 3308.73 3005.87 3291 2990.27C3283.8 2983.87 3273 2974.93 3266.87 2970.27C3260.73 2965.73 3252.07 2958.93 3247.67 2955.2C3243.27 2951.47 3235.27 2944.67 3229.8 2940.13C3224.47 2935.73 3213.93 2926.93 3206.47 2920.67C3199.13 2914.4 3188.87 2906 3183.67 2902C3178.6 2898.13 3167.53 2889.07 3159.13 2882.13C3150.87 2875.07 3140.6 2866.8 3136.47 2863.6C3132.33 2860.4 3127.53 2856.13 3125.67 2854.13C3121.67 2849.6 3107.27 2838.53 3094.73 2830.4C3089.8 2827.2 3085.4 2824.13 3085 2823.47C3083.67 2821.07 3063.4 2806.27 3057.8 2803.33C3053.4 2801.07 3051.67 2800.8 3050.2 2802.13C3048.6 2803.47 3048.33 2823.73 3048.33 2940.67C3048.33 3066 3048.47 3077.87 3050.47 3079.47C3052.2 3080.93 3058.07 3081.2 3077.53 3080.93C3091.13 3080.67 3102.73 3080.13 3103.27 3079.87C3103.93 3079.47 3104.47 3046 3104.47 3005.6C3104.6 2965.07 3105 2930.13 3105.53 2928C3106.07 2925.47 3107.13 2924 3108.6 2924C3109.93 2924 3165.13 2966.53 3231.27 3018.67C3380.2 3136 3375.93 3132.67 3380.2 3132.67C3381.27 3132.67 3381.67 3080.8 3381.67 2933.47V2734.27L3377.53 2732.8C3375 2732 3363.53 2731.33 3349.8 2731.33C3326.33 2731.47 3326.33 2731.47 3322.33 2734.93Z" fill="white"/>
<path d="M2859 2799.73C2850.07 2800.53 2845.67 2801.47 2844.07 2803.07C2842.47 2804.8 2701.13 3052.4 2688.87 3075.33C2687.93 3077.07 2687.53 3079.07 2688.07 3079.6C2688.73 3080.27 2701.67 3080.53 2716.87 3080.4L2744.6 3080L2747.13 3075.33C2748.6 3072.8 2753.67 3062.53 2758.47 3052.67C2766.6 3035.6 2777.13 3016.4 2781.8 3010.13L2783.93 3007.2L2859.13 3007.33C2900.47 3007.33 2934.6 3007.87 2935.13 3008.4C2935.67 3008.93 2944.6 3024.67 2955 3043.33C2965.27 3062 2974.73 3078.27 2975.8 3079.33C2977.4 3081.07 2982.33 3081.33 3005.27 3081.07C3020.33 3080.93 3033 3080.4 3033.4 3080.13C3034.33 3079.07 3031.27 3072.4 3026.07 3063.6C3020.87 3055.07 3015.4 3044.8 2993 3002C2984.33 2985.47 2975.93 2970.13 2974.2 2968C2972.6 2965.73 2966.47 2954.53 2960.47 2943.07C2954.6 2931.47 2945.8 2915.33 2941.13 2907.07C2936.47 2898.8 2928.73 2884.53 2923.93 2875.33C2911.4 2851.07 2890.6 2812.93 2886.2 2806C2881.53 2798.8 2878.47 2798.13 2859 2799.73ZM2867.4 2888.67C2892.07 2936.4 2900.6 2954.27 2899.4 2955.47C2898.6 2956.27 2881.4 2956.53 2854.87 2956.4C2815.53 2956 2811.67 2955.73 2811.27 2953.73C2811 2952.53 2813.67 2947.07 2817.13 2941.73C2820.6 2936.4 2825.27 2928.93 2827.67 2925.33C2839.53 2906.8 2852.33 2886.13 2854.2 2882.27C2857.8 2875.2 2861.27 2876.8 2867.4 2888.67Z" fill="white"/>
<path d="M1140.33 2801.07C1126.07 2805.07 1119.4 2811.87 1107.93 2834C1103.27 2843.2 1096.6 2855.47 1093.4 2861.33C1078.87 2887.07 1062.2 2917.07 1055.4 2929.33C1051.27 2936.67 1046.87 2944.4 1045.53 2946.67C1034.2 2965.6 1028.6 2975.33 1026.6 2979.33C1025.27 2981.87 1023 2985.73 1021.67 2988C1018.6 2992.53 1016.33 2997.6 1016.33 2999.47C1016.33 3000.13 1015.8 3000.67 1015.13 3000.67C1014.47 3000.67 1013 3002.67 1011.8 3004.93C1010.6 3007.33 1006.33 3014.67 1002.47 3021.33C998.467 3027.87 990.733 3042.13 985.4 3053.07C979.933 3063.87 975.133 3072.27 974.6 3071.87C974.2 3071.33 973.4 3072.8 972.867 3074.8C972.333 3076.93 971.133 3079.2 970.2 3080C969 3080.8 968.867 3082 969.533 3083.07C970.333 3084.53 976.467 3084.8 997.4 3084.8C1012.07 3084.67 1025.4 3084.13 1027 3083.6C1029.13 3082.8 1035.13 3072.27 1049 3045.2L1068.07 3008L1216.2 3007.47L1218.73 3011.07C1220.2 3013.07 1223 3017.6 1224.87 3021.33C1226.87 3024.93 1229 3028.93 1229.67 3030C1230.33 3031.07 1232.6 3035.6 1234.73 3040C1239 3049.07 1247.67 3065.07 1253.4 3074.8C1255.4 3078.4 1258.6 3082.13 1260.47 3082.93C1262.87 3084.27 1288.87 3084.67 1372.6 3084.67C1432.47 3084.67 1482.47 3084.27 1483.67 3083.87C1484.73 3083.33 1486.73 3081.07 1488.07 3078.8C1490.07 3075.2 1490.33 3068.93 1490.73 3025.87L1491.13 2977.07L1468.73 2962.4C1448.47 2949.2 1433.67 2939.73 1427.27 2936C1422.87 2933.33 1415.67 2929.47 1415 2929.33C1414.6 2929.33 1409.27 2926.27 1403 2922.53C1396.73 2918.8 1390.73 2915.47 1389.67 2914.93C1388.6 2914.4 1382.33 2910.67 1375.67 2906.53C1369.13 2902.53 1360.6 2897.87 1357 2896.13C1353.27 2894.4 1349.4 2892 1348.47 2890.8C1347.53 2889.6 1345.93 2888.67 1345 2888.67C1343.4 2888.67 1327.8 2879.07 1321.4 2874C1318.47 2871.73 1317.93 2870.67 1319 2868.8C1321.53 2864 1330.2 2863.33 1390.87 2863.33C1459.93 2863.33 1457.4 2863.73 1474.6 2848.93C1484.87 2840 1505.67 2816.53 1505.67 2813.73C1505.67 2812.8 1480.47 2812.67 1426.07 2813.07C1382.2 2813.47 1342.33 2813.87 1337.53 2813.87C1327.27 2813.87 1318.47 2815.6 1308.33 2819.6C1294.6 2825.07 1286.07 2834.4 1280.2 2850.8C1276.07 2862 1276.07 2882.53 1280.33 2892.27C1285 2903.33 1306.73 2922.13 1331 2936.27C1337.93 2940.4 1347.93 2946.4 1353 2949.73C1372.73 2962.53 1375.8 2964.4 1379.8 2965.73C1382.07 2966.4 1387.67 2969.73 1392.07 2972.8C1396.6 2976 1405.4 2982 1411.8 2986C1425.27 2994.53 1446.33 3014.27 1447.67 3019.73C1449.27 3026 1447.53 3029.47 1441.67 3031.87C1437 3033.73 1427.53 3034 1365.27 3034H1294.2L1290.47 3030.27C1287.4 3026.93 1271.8 2998.27 1236.73 2931.33C1207.4 2875.33 1197.53 2856.8 1190.07 2843.6C1185.4 2835.2 1181.67 2828 1181.67 2827.47C1181.67 2824.93 1175.93 2813.87 1172.73 2810C1165.67 2801.6 1151.93 2797.87 1140.33 2801.07ZM1149.67 2874.13C1149.27 2874.67 1149.93 2876.13 1151.13 2877.47C1154.73 2881.6 1188.6 2955.47 1187.8 2957.47C1187.13 2959.07 1179.93 2959.33 1142.73 2959.07L1098.33 2958.67L1098.6 2955.07C1098.73 2953.07 1107.93 2935.73 1119.13 2916.4C1146.47 2868.93 1144.2 2872.4 1147.53 2872.93C1149 2873.2 1150.07 2873.73 1149.67 2874.13Z" fill="white"/>
<path d="M2513 2805.2C2488.87 2811.33 2478.73 2823.47 2478.47 2846.53L2478.33 2857.33L2540.47 2857.73L2602.6 2858L2604.07 2868.27C2605 2875.47 2605.13 2905.07 2604.07 2969.2C2602.87 3055.2 2603.13 3073.87 2605.53 3077.73C2606.73 3079.73 2649.13 3080.8 2652.07 3078.93C2653.27 3078.13 2653.67 3054.8 2653.67 2970.13C2653.67 2863.07 2653.67 2862.4 2656.47 2858.8L2659.13 2855.33H2761.67L2763.13 2851.73C2765 2846.8 2775 2807.73 2775 2805.33C2775 2803.6 2760.87 2803.33 2647.4 2803.47C2549.4 2803.6 2518.07 2804 2513 2805.2Z" fill="white"/>
<path d="M1727.67 2814.8C1709.13 2832 1662.07 2876.4 1638.2 2899.07C1624.2 2912.53 1610.07 2925.33 1606.87 2927.6C1603.67 2929.87 1599.4 2933.2 1597.53 2935.07C1595.13 2937.2 1592.73 2938.13 1590.2 2937.73L1586.33 2937.33V2874.27C1586.33 2833.2 1585.93 2811.33 1585 2811.33C1584.33 2811.33 1574.33 2811.2 1563 2811.2L1542.33 2811.07L1541.67 3088L1557.93 3087.6C1567 3087.47 1576.6 3087.2 1579.4 3086.93L1584.47 3086.67V3023.33C1584.33 2986.93 1584.87 2959.2 1585.53 2958.13C1586.87 2956 1591 2954.93 1591 2956.53C1591 2957.2 1592.07 2958.13 1593.53 2958.8C1594.87 2959.47 1599.53 2962.93 1603.67 2966.67C1615.4 2976.93 1616.07 2977.47 1621.93 2982.27C1625 2984.67 1629 2988.13 1631.13 2990C1633.13 2991.87 1636.47 2994.53 1638.47 2996C1640.6 2997.47 1644.07 3000.53 1646.33 3002.8C1648.47 3005.07 1651.27 3007.47 1652.6 3008.13C1655 3009.47 1666.87 3019.6 1672.47 3024.93C1674.47 3026.93 1676.33 3028.27 1676.73 3027.87C1677 3027.47 1678.87 3029.07 1680.73 3031.33C1682.6 3033.47 1684.73 3035.33 1685.4 3035.33C1686.07 3035.33 1687.67 3036.8 1689.13 3038.53C1690.47 3040.4 1691.93 3041.6 1692.6 3041.2C1693.13 3040.8 1693.67 3041.47 1693.67 3042.67C1693.67 3043.87 1694.2 3044.53 1694.87 3044C1695.53 3043.6 1697.13 3044.67 1698.2 3046.27C1699.4 3047.87 1700.33 3048.67 1700.33 3048C1700.33 3047.2 1701.8 3048.27 1703.53 3050.27C1705.27 3052.4 1707.27 3054 1708.2 3054C1709 3054 1709.67 3054.93 1709.67 3056.13C1709.67 3057.33 1710.87 3058.53 1712.33 3058.93C1713.8 3059.33 1715 3060.13 1715 3060.8C1715 3061.47 1715.53 3061.87 1716.07 3061.73C1716.73 3061.47 1719.13 3063.2 1721.27 3065.6C1723.53 3068 1725.67 3069.47 1726.2 3069.07C1726.6 3068.67 1727 3069.2 1727 3070.53C1727 3071.73 1727.67 3072.4 1728.33 3072C1729.13 3071.6 1729.67 3071.73 1729.67 3072.4C1729.67 3073.07 1731.13 3074.4 1733 3075.33C1734.87 3076.27 1736.33 3078 1736.33 3078.93C1736.33 3080 1736.87 3080.53 1737.53 3080C1738.33 3079.6 1739.27 3080.13 1739.93 3081.2C1741.53 3084 1800.47 3083.6 1801.4 3080.8C1801.8 3079.73 1801.4 3079.33 1800.6 3079.87C1799.67 3080.4 1798.73 3079.47 1798.2 3077.47C1797.8 3075.73 1795.93 3073.07 1794.07 3071.73C1792.2 3070.4 1788.73 3067.33 1786.2 3064.93C1783.67 3062.4 1781.67 3060.8 1781.67 3061.2C1781.67 3062 1777.4 3058.53 1770.87 3052.27C1768.73 3050.27 1766.33 3048.67 1765.67 3048.67C1764.87 3048.67 1764.47 3048.13 1765 3047.47C1765.4 3046.8 1764.6 3045.87 1763.27 3045.47C1761.93 3044.93 1758.33 3042.4 1755.4 3039.6C1752.33 3036.93 1748.87 3033.87 1747.4 3032.8C1746.07 3031.73 1742.2 3028.4 1738.87 3025.47C1735.4 3022.4 1730.07 3017.87 1727 3015.33C1723.8 3012.8 1719.93 3009.33 1718.2 3007.6C1716.47 3005.87 1715 3004.93 1715 3005.33C1715 3005.73 1712.73 3003.87 1710.07 3001.2C1702.87 2994.4 1700.87 2992.67 1700.07 2992.67C1699.67 2992.67 1697.27 2990.67 1694.73 2988.27C1689.67 2983.47 1684.6 2979.33 1683.67 2979.33C1683.4 2979.33 1681 2977.2 1678.33 2974.4C1675.8 2971.73 1673.67 2970 1673.67 2970.4C1673.67 2971.6 1669.13 2967.73 1662.2 2960.8C1656.6 2955.2 1655.13 2952.67 1657.4 2952.67C1658.07 2952.67 1659.27 2951.2 1660.2 2949.47C1661.13 2947.73 1663.4 2945.47 1665.13 2944.53C1666.87 2943.6 1668.07 2942.67 1667.67 2942.27C1667.4 2941.87 1671.8 2936.8 1677.67 2930.8C1706.33 2901.33 1715.93 2891.33 1735.8 2870.53C1764.33 2840.4 1780.33 2823.33 1783.67 2819.47C1785.13 2817.6 1787.27 2815.2 1788.47 2814C1789.53 2812.8 1790.87 2810.8 1791.4 2809.6C1792.2 2807.47 1789.93 2807.33 1763.93 2807.33L1735.67 2807.47L1727.67 2814.8Z" fill="white"/>
<path d="M2246.33 2808.8C2227.27 2809.33 2164.33 2810.4 2106.33 2811.2C1983.27 2812.8 1945.67 2813.47 1944.6 2814.53C1943.13 2816.13 1949.93 2844 1953.67 2851.33C1958.07 2860.13 1963.13 2864.8 1971.67 2868C1977.13 2870.13 1980.73 2870.27 2015.93 2868.93C2037.13 2868.13 2068.47 2866.53 2085.67 2865.33C2102.87 2864.13 2119.4 2863.33 2122.33 2863.6C2127.53 2864 2127.67 2864.13 2128.73 2870C2129.27 2873.33 2129.67 2921.07 2129.53 2976C2129.53 3053.33 2129.8 3076.93 2131.13 3079.73L2132.73 3083.33H2154.47C2173.8 3083.33 2176.2 3083.07 2177 3080.93C2177.53 3079.73 2177.8 3030.53 2177.67 2971.73C2177.53 2896.4 2177.93 2864 2179 2862C2180.47 2859.33 2181.27 2859.33 2239.67 2859.33C2273.67 2859.33 2300.2 2858.8 2302.2 2858.13C2305 2856.93 2306.33 2853.87 2312.2 2835.87C2315.93 2824.4 2319 2814.27 2319 2813.2C2319 2808 2304.2 2807.07 2246.33 2808.8Z" fill="white"/>
<path d="M2380.87 2810.13C2372.47 2812.53 2373 2803.47 2373 2948.8C2373 3047.6 2373.4 3082.27 2374.6 3083.47C2376.33 3085.2 2410.73 3086 2413.4 3084.27C2414.6 3083.47 2415 3054.8 2415 2948.67V2814.13L2411.53 2811.47C2408.47 2809.07 2406.2 2808.67 2396.47 2808.8C2390.2 2808.8 2383.13 2809.47 2380.87 2810.13Z" fill="white"/>
<path d="M726.333 2815.87C716.733 2818.27 705.4 2824.13 700.6 2829.07C697.533 2832.27 695.8 2836.13 693.8 2844.53C692.2 2850.67 691 2857.73 691 2860.13V2864.67L755.4 2864.93L819.667 2865.33L820.067 2978.27L820.333 3091.33H844.067C857 3091.33 868.333 3090.8 869 3090.27C869.933 3089.73 870.333 3050 870.333 2976V2862.67L926.333 2862.27C957 2862.13 982.6 2861.47 983.133 2860.93C984.2 2859.87 995 2818.8 995 2815.87C995 2813.2 736.733 2813.33 726.333 2815.87Z" fill="white"/>
</g>
<defs>
<filter id="filter0_d_1_2" x="-4" y="0" width="3741.33" height="3741.33" filterUnits="userSpaceOnUse" color-interpolation-filters="sRGB">
<feFlood flood-opacity="0" result="BackgroundImageFix"/>
<feColorMatrix in="SourceAlpha" type="matrix" values="0 0 0 0 0 0 0 0 0 0 0 0 0 0 0 0 0 0 127 0" result="hardAlpha"/>
<feOffset dy="4"/>
<feGaussianBlur stdDeviation="2"/>
<feComposite in2="hardAlpha" operator="out"/>
<feColorMatrix type="matrix" values="0 0 0 0 0 0 0 0 0 0 0 0 0 0 0 0 0 0 0.25 0"/>
<feBlend mode="normal" in2="BackgroundImageFix" result="effect1_dropShadow_1_2"/>
<feBlend mode="normal" in="SourceGraphic" in2="effect1_dropShadow_1_2" result="shape"/>
</filter>
</defs>
</svg>
